<svg width="329" height="64" viewBox="0 0 329 64" fill="none" xmlns="http://www.w3.org/2000/svg">
<path d="M0.805664 36L8.34961 0.306641H17.7979C21.8994 0.306641 25.0407 1.12044 27.2217 2.74805C29.4027 4.37565 30.4932 6.8252 30.4932 10.0967C30.4932 12.2777 30.1351 14.1006 29.4189 15.5654C28.7028 17.014 27.8158 18.1777 26.7578 19.0566C25.6999 19.9355 24.6501 20.6029 23.6084 21.0586L30.0537 36H19.6533L14.8926 23.0117H13.1104L10.3516 36H0.805664ZM14.6484 15.7607H15.8936C16.5283 15.7607 17.1468 15.6712 17.749 15.4922C18.3512 15.2969 18.8883 15.0039 19.3604 14.6133C19.8486 14.2064 20.2311 13.6855 20.5078 13.0508C20.8008 12.3997 20.9473 11.6185 20.9473 10.707C20.9473 9.8444 20.7031 9.11198 20.2148 8.50977C19.7266 7.90755 18.8721 7.60645 17.6514 7.60645H16.3574L14.6484 15.7607ZM42.9121 36.4883C40.4382 36.4883 38.3141 36.0488 36.54 35.1699C34.766 34.2747 33.4069 33.0459 32.4629 31.4834C31.5352 29.9209 31.0713 28.1468 31.0713 26.1611C31.0713 25.6566 31.0957 25.1113 31.1445 24.5254C31.1934 23.9232 31.2666 23.3617 31.3643 22.8408L36.2227 0.306641H45.7686L41.0078 22.5967C40.9102 23.0687 40.8288 23.5488 40.7637 24.0371C40.6986 24.5254 40.666 24.9811 40.666 25.4043C40.666 26.3809 40.9346 27.1458 41.4717 27.6992C42.0088 28.2363 42.79 28.5049 43.8154 28.5049C44.7757 28.5049 45.5895 28.2933 46.2568 27.8701C46.9404 27.4469 47.5182 26.7715 47.9902 25.8438C48.4785 24.8997 48.8854 23.6546 49.2109 22.1084L53.874 0.306641H63.4199L58.5615 23.0605C57.9593 25.9577 57.0397 28.4072 55.8027 30.4092C54.5658 32.3949 52.9056 33.9085 50.8223 34.9502C48.7389 35.9756 46.1022 36.4883 42.9121 36.4883ZM59.3838 36L66.9277 0.306641H78.8174C81.3727 0.306641 83.4398 0.640299 85.0186 1.30762C86.5973 1.97493 87.7529 2.89453 88.4854 4.06641C89.2178 5.23828 89.584 6.58105 89.584 8.09473C89.584 9.70605 89.2992 11.1221 88.7295 12.3428C88.1761 13.5472 87.3542 14.5563 86.2637 15.3701C85.1895 16.1839 83.8792 16.8268 82.333 17.2988V17.4941C83.7653 17.9661 84.9046 18.7962 85.751 19.9844C86.5973 21.1725 87.0205 22.613 87.0205 24.3057C87.0205 27.0889 86.3776 29.3431 85.0918 31.0684C83.8223 32.7773 82.1051 34.0306 79.9404 34.8281C77.792 35.6094 75.3913 36 72.7383 36H59.3838ZM70.5166 28.5537H72.5186C73.4951 28.5537 74.3496 28.3665 75.082 27.9922C75.8145 27.6178 76.3841 27.1214 76.791 26.5029C77.2142 25.8682 77.4258 25.1683 77.4258 24.4033C77.4258 23.2803 77.1572 22.4421 76.6201 21.8887C76.083 21.3353 75.139 21.0586 73.7881 21.0586H72.1279L70.5166 28.5537ZM73.5684 14.0029H75.3262C76.4492 14.0029 77.32 13.8402 77.9385 13.5146C78.5732 13.1729 79.0208 12.709 79.2812 12.123C79.5417 11.5371 79.6719 10.8617 79.6719 10.0967C79.6719 9.29915 79.4196 8.6888 78.915 8.26562C78.4105 7.82617 77.6292 7.60645 76.5713 7.60645H75.0332L73.5684 14.0029ZM86.5732 36L94.1172 0.306641H115.309L113.722 8.0459H102.076L100.929 13.6611H111.769L110.011 21.4004H99.1709L97.7793 28.1387H109.425L107.765 36H86.5732ZM110.198 36L117.742 0.306641H130.389V25.6484H130.584L142.254 0.306641H155.096L147.454 36H138.885L141.741 22.5967C142.278 20.1064 142.75 18.0638 143.157 16.4688C143.564 14.8737 143.898 13.6042 144.158 12.6602C144.435 11.6999 144.63 10.943 144.744 10.3896H144.549L132.781 36H123.748V10.3896H123.553C123.292 12.0661 123.04 13.6611 122.796 15.1748C122.552 16.6722 122.316 18.0638 122.088 19.3496C121.876 20.6354 121.665 21.8154 121.453 22.8896L118.694 36H110.198ZM159.646 36L167.189 0.306641H176.296C179.453 0.306641 181.984 0.778646 183.889 1.72266C185.809 2.66667 187.201 3.95247 188.063 5.58008C188.942 7.19141 189.382 8.99805 189.382 11C189.382 13.1322 188.999 15.0202 188.234 16.6641C187.486 18.2917 186.411 19.667 185.012 20.79C183.628 21.8968 181.976 22.735 180.056 23.3047C178.151 23.8743 176.044 24.1592 173.732 24.1592H171.633L169.191 36H159.646ZM173.342 16.3467H174.88C175.889 16.3467 176.76 16.127 177.492 15.6875C178.241 15.248 178.819 14.6458 179.226 13.8809C179.632 13.1159 179.836 12.2533 179.836 11.293C179.836 10.4792 179.576 9.74674 179.055 9.0957C178.55 8.42839 177.712 8.09473 176.54 8.09473H175.1L173.342 16.3467ZM200.385 36.4883C197.911 36.4883 195.787 36.0488 194.013 35.1699C192.239 34.2747 190.88 33.0459 189.936 31.4834C189.008 29.9209 188.544 28.1468 188.544 26.1611C188.544 25.6566 188.568 25.1113 188.617 24.5254C188.666 23.9232 188.739 23.3617 188.837 22.8408L193.695 0.306641H203.241L198.48 22.5967C198.383 23.0687 198.301 23.5488 198.236 24.0371C198.171 24.5254 198.139 24.9811 198.139 25.4043C198.139 26.3809 198.407 27.1458 198.944 27.6992C199.481 28.2363 200.263 28.5049 201.288 28.5049C202.248 28.5049 203.062 28.2933 203.729 27.8701C204.413 27.4469 204.991 26.7715 205.463 25.8438C205.951 24.8997 206.358 23.6546 206.684 22.1084L211.347 0.306641H220.893L216.034 23.0605C215.432 25.9577 214.512 28.4072 213.275 30.4092C212.038 32.3949 210.378 33.9085 208.295 34.9502C206.212 35.9756 203.575 36.4883 200.385 36.4883ZM221.812 36L227.599 8.19238H219.859L221.544 0.306641H246.642L244.908 8.19238H237.145L231.358 36H221.812ZM244.9 36L250.687 8.19238H242.947L244.632 0.306641H269.729L267.996 8.19238H260.232L254.446 36H244.9ZM263.032 36L270.576 0.306641H280.122L272.578 36H263.032ZM276.208 36L283.752 0.306641H294.86L301.843 24.3057H302.062C302.144 23.5895 302.258 22.6781 302.404 21.5713C302.567 20.4645 302.738 19.3415 302.917 18.2021C303.112 17.0628 303.291 16.0781 303.454 15.248L306.652 0.306641H315.148L307.604 36H296.496L289.44 10.9023H289.245C289.229 11.2279 289.18 11.7894 289.099 12.5869C289.017 13.3682 288.911 14.2633 288.781 15.2725C288.651 16.2816 288.505 17.307 288.342 18.3486C288.195 19.374 288.033 20.2936 287.854 21.1074L284.704 36H276.208ZM311.21 36L318.754 0.306641H328.3L320.756 36H311.21Z" fill="white"/>
<path d="M26.78 48.96C27.4333 48.96 27.9867 48.98 28.44 49.02C28.9067 49.0467 29.3333 49.0933 29.72 49.16C30.1067 49.2267 30.5067 49.32 30.92 49.44L30.68 51.68C30.24 51.6533 29.8333 51.6333 29.46 51.62C29.1 51.6067 28.7067 51.6 28.28 51.6C27.8667 51.5867 27.3667 51.58 26.78 51.58C26.1 51.58 25.5667 51.7133 25.18 51.98C24.8067 52.2467 24.54 52.7133 24.38 53.38C24.22 54.0333 24.14 54.94 24.14 56.1C24.14 57.26 24.22 58.1733 24.38 58.84C24.54 59.4933 24.8067 59.9533 25.18 60.22C25.5667 60.4867 26.1 60.62 26.78 60.62C27.7 60.62 28.4733 60.6067 29.1 60.58C29.7267 60.5533 30.3467 60.5067 30.96 60.44L31.22 62.68C30.58 62.88 29.9267 63.02 29.26 63.1C28.5933 63.1933 27.7667 63.24 26.78 63.24C25.3533 63.24 24.2067 63.0133 23.34 62.56C22.4867 62.0933 21.8667 61.34 21.48 60.3C21.1067 59.26 20.92 57.86 20.92 56.1C20.92 54.34 21.1067 52.94 21.48 51.9C21.8667 50.86 22.4867 50.1133 23.34 49.66C24.2067 49.1933 25.3533 48.96 26.78 48.96ZM38.4425 48.92C39.5358 48.92 40.4625 49.04 41.2225 49.28C41.9825 49.5067 42.5892 49.8933 43.0425 50.44C43.5092 50.9733 43.8492 51.7067 44.0625 52.64C44.2758 53.56 44.3825 54.7133 44.3825 56.1C44.3825 57.4867 44.2758 58.6467 44.0625 59.58C43.8492 60.5 43.5092 61.2333 43.0425 61.78C42.5892 62.3133 41.9825 62.7 41.2225 62.94C40.4625 63.1667 39.5358 63.28 38.4425 63.28C37.3492 63.28 36.4225 63.1667 35.6625 62.94C34.9025 62.7 34.2892 62.3133 33.8225 61.78C33.3558 61.2333 33.0158 60.5 32.8025 59.58C32.5892 58.6467 32.4825 57.4867 32.4825 56.1C32.4825 54.7133 32.5892 53.56 32.8025 52.64C33.0158 51.7067 33.3558 50.9733 33.8225 50.44C34.2892 49.8933 34.9025 49.5067 35.6625 49.28C36.4225 49.04 37.3492 48.92 38.4425 48.92ZM38.4425 51.34C37.7358 51.34 37.1825 51.48 36.7825 51.76C36.3958 52.04 36.1158 52.5267 35.9425 53.22C35.7825 53.9 35.7025 54.86 35.7025 56.1C35.7025 57.3267 35.7825 58.2867 35.9425 58.98C36.1158 59.6733 36.3958 60.16 36.7825 60.44C37.1825 60.72 37.7358 60.86 38.4425 60.86C39.1358 60.86 39.6758 60.72 40.0625 60.44C40.4625 60.16 40.7425 59.6733 40.9025 58.98C41.0758 58.2867 41.1625 57.3267 41.1625 56.1C41.1625 54.86 41.0758 53.9 40.9025 53.22C40.7425 52.5267 40.4625 52.04 40.0625 51.76C39.6758 51.48 39.1358 51.34 38.4425 51.34ZM58.392 49.2V61.9C58.392 62.6333 58.0254 63 57.292 63H55.612C55.2787 63 55.0254 62.9267 54.852 62.78C54.6787 62.62 54.5187 62.3867 54.372 62.08L50.552 54.84C50.392 54.5333 50.232 54.1933 50.072 53.82C49.9254 53.4467 49.7987 53.0867 49.692 52.74H49.472C49.512 53.1 49.5454 53.4667 49.572 53.84C49.5987 54.2 49.612 54.56 49.612 54.92V63H46.712V50.3C46.712 49.5667 47.0854 49.2 47.832 49.2H49.492C49.812 49.2 50.052 49.28 50.212 49.44C50.3854 49.5867 50.552 49.8133 50.712 50.12L54.412 57.14C54.572 57.4467 54.7387 57.7867 54.912 58.16C55.0854 58.5333 55.252 58.92 55.412 59.32H55.652C55.612 58.92 55.5787 58.5333 55.552 58.16C55.5387 57.7733 55.532 57.3933 55.532 57.02L55.512 49.2H58.392ZM65.7056 48.94C66.3856 48.94 67.1256 48.98 67.9256 49.06C68.7256 49.1267 69.5056 49.2733 70.2656 49.5L70.0656 51.52C69.479 51.5067 68.7923 51.4933 68.0056 51.48C67.219 51.4667 66.4456 51.46 65.6856 51.46C65.3123 51.46 64.9923 51.4733 64.7256 51.5C64.4723 51.5133 64.2656 51.5667 64.1056 51.66C63.9456 51.74 63.8323 51.8667 63.7656 52.04C63.699 52.2133 63.6656 52.4533 63.6656 52.76C63.6656 53.2267 63.7723 53.5667 63.9856 53.78C64.2123 53.9933 64.5923 54.1867 65.1256 54.36L67.7856 55.22C68.8923 55.5933 69.659 56.1 70.0856 56.74C70.5123 57.38 70.7256 58.22 70.7256 59.26C70.7256 60.0467 70.6323 60.7 70.4456 61.22C70.259 61.74 69.9656 62.1467 69.5656 62.44C69.1656 62.7333 68.639 62.94 67.9856 63.06C67.3323 63.1933 66.5323 63.26 65.5856 63.26C65.1323 63.26 64.4856 63.2267 63.6456 63.16C62.8056 63.1067 61.8456 62.96 60.7656 62.72L60.9656 60.56C61.7523 60.5733 62.4323 60.5933 63.0056 60.62C63.5923 60.6333 64.0923 60.6467 64.5056 60.66C64.919 60.66 65.279 60.66 65.5856 60.66C66.119 60.66 66.5323 60.6267 66.8256 60.56C67.1323 60.4933 67.3456 60.36 67.4656 60.16C67.5856 59.96 67.6456 59.6733 67.6456 59.3C67.6456 58.98 67.599 58.7267 67.5056 58.54C67.4256 58.34 67.2856 58.1867 67.0856 58.08C66.899 57.96 66.639 57.8533 66.3056 57.76L63.5056 56.8C62.4523 56.4133 61.7056 55.9067 61.2656 55.28C60.8256 54.6533 60.6056 53.8267 60.6056 52.8C60.6056 52 60.699 51.3533 60.8856 50.86C61.0856 50.3533 61.3856 49.96 61.7856 49.68C62.199 49.4 62.7256 49.2067 63.3656 49.1C64.019 48.9933 64.799 48.94 65.7056 48.94ZM83.9044 49.2V57.5C83.9044 58.9 83.731 60.0267 83.3844 60.88C83.0377 61.72 82.4644 62.3333 81.6644 62.72C80.8777 63.0933 79.8244 63.28 78.5044 63.28C77.1044 63.28 75.9844 63.0933 75.1444 62.72C74.3044 62.3333 73.6977 61.72 73.3244 60.88C72.951 60.0267 72.7644 58.9 72.7644 57.5V49.2H75.8244V57.5C75.8244 58.3667 75.8977 59.0467 76.0444 59.54C76.2044 60.02 76.471 60.36 76.8444 60.56C77.2177 60.76 77.7177 60.86 78.3444 60.86C78.971 60.86 79.4644 60.76 79.8244 60.56C80.1977 60.36 80.4577 60.02 80.6044 59.54C80.7644 59.0467 80.8444 58.3667 80.8444 57.5V49.2H83.9044ZM89.5953 49.2V59.52C89.5953 59.8533 89.6886 60.1067 89.8753 60.28C90.062 60.4533 90.3286 60.54 90.6753 60.54H95.4953L95.6353 62.84C94.6886 62.9467 93.6953 63.0067 92.6553 63.02C91.6286 63.0467 90.602 63.06 89.5753 63.06C88.5753 63.06 87.8153 62.7933 87.2953 62.26C86.7886 61.7133 86.5353 61.02 86.5353 60.18V49.2H89.5953ZM101.524 49.2V63H98.4644V49.2H101.524ZM105.684 49.2V51.6H94.3244V49.2H105.684ZM112.72 48.92C113.813 48.92 114.74 49.04 115.5 49.28C116.26 49.5067 116.867 49.8933 117.32 50.44C117.787 50.9733 118.127 51.7067 118.34 52.64C118.553 53.56 118.66 54.7133 118.66 56.1C118.66 57.4867 118.553 58.6467 118.34 59.58C118.127 60.5 117.787 61.2333 117.32 61.78C116.867 62.3133 116.26 62.7 115.5 62.94C114.74 63.1667 113.813 63.28 112.72 63.28C111.627 63.28 110.7 63.1667 109.94 62.94C109.18 62.7 108.567 62.3133 108.1 61.78C107.633 61.2333 107.293 60.5 107.08 59.58C106.867 58.6467 106.76 57.4867 106.76 56.1C106.76 54.7133 106.867 53.56 107.08 52.64C107.293 51.7067 107.633 50.9733 108.1 50.44C108.567 49.8933 109.18 49.5067 109.94 49.28C110.7 49.04 111.627 48.92 112.72 48.92ZM112.72 51.34C112.013 51.34 111.46 51.48 111.06 51.76C110.673 52.04 110.393 52.5267 110.22 53.22C110.06 53.9 109.98 54.86 109.98 56.1C109.98 57.3267 110.06 58.2867 110.22 58.98C110.393 59.6733 110.673 60.16 111.06 60.44C111.46 60.72 112.013 60.86 112.72 60.86C113.413 60.86 113.953 60.72 114.34 60.44C114.74 60.16 115.02 59.6733 115.18 58.98C115.353 58.2867 115.44 57.3267 115.44 56.1C115.44 54.86 115.353 53.9 115.18 53.22C115.02 52.5267 114.74 52.04 114.34 51.76C113.953 51.48 113.413 51.34 112.72 51.34ZM126.309 49C127.523 49 128.503 49.1267 129.249 49.38C130.009 49.62 130.563 50.04 130.909 50.64C131.269 51.2267 131.449 52.0467 131.449 53.1C131.449 53.74 131.363 54.3067 131.189 54.8C131.029 55.28 130.756 55.6667 130.369 55.96C129.983 56.2533 129.456 56.44 128.789 56.52V56.62C129.029 56.66 129.276 56.7533 129.529 56.9C129.796 57.0467 130.043 57.2667 130.269 57.56C130.496 57.84 130.663 58.22 130.769 58.7L131.969 63H128.749L127.689 58.8C127.569 58.3467 127.389 58.0333 127.149 57.86C126.923 57.6867 126.603 57.6 126.189 57.6C125.283 57.6 124.516 57.6 123.889 57.6C123.276 57.5867 122.756 57.5733 122.329 57.56C121.916 57.5467 121.543 57.5333 121.209 57.52L121.269 55.3H126.249C126.783 55.3 127.203 55.2467 127.509 55.14C127.829 55.02 128.049 54.8133 128.169 54.52C128.303 54.2267 128.369 53.82 128.369 53.3C128.369 52.7667 128.303 52.36 128.169 52.08C128.049 51.7867 127.829 51.5867 127.509 51.48C127.203 51.36 126.783 51.3 126.249 51.3C124.996 51.3 123.936 51.3067 123.069 51.32C122.203 51.3333 121.609 51.3533 121.289 51.38L120.989 49.2C121.549 49.1333 122.076 49.0867 122.569 49.06C123.063 49.0333 123.603 49.02 124.189 49.02C124.776 49.0067 125.483 49 126.309 49ZM124.009 49.2V63H120.989V49.2H124.009ZM136.999 49.2V63H133.959V49.2H136.999ZM146.378 49.2C146.632 49.2 146.852 49.2733 147.038 49.42C147.238 49.5667 147.372 49.76 147.438 50L151.438 63H148.318L145.498 52.86C145.445 52.6333 145.392 52.4067 145.338 52.18C145.285 51.94 145.238 51.7133 145.198 51.5H144.658C144.618 51.7133 144.572 51.94 144.518 52.18C144.478 52.4067 144.425 52.6333 144.358 52.86L141.538 63H138.398L142.418 50C142.485 49.76 142.612 49.5667 142.798 49.42C142.998 49.2733 143.225 49.2 143.478 49.2H146.378ZM148.498 57.06V59.36H141.338V57.06H148.498ZM159.633 49.14C160.339 49.14 161.059 49.1467 161.793 49.16C162.539 49.16 163.266 49.18 163.973 49.22C164.693 49.2467 165.359 49.2933 165.973 49.36L165.813 51.56H160.813C160.453 51.56 160.179 51.6467 159.993 51.82C159.806 51.9933 159.713 52.2467 159.713 52.58V63H156.653V51.96C156.653 51.1067 156.926 50.4267 157.473 49.92C158.019 49.4 158.739 49.14 159.633 49.14ZM157.013 54.98H165.073V57.14H157.013V54.98ZM170.885 49.2V63H167.845V49.2H170.885ZM179.825 49.2V63H176.765V49.2H179.825ZM183.985 49.2V51.6H172.625V49.2H183.985ZM197.376 49.2V61.9C197.376 62.6333 197.01 63 196.276 63H194.596C194.263 63 194.01 62.9267 193.836 62.78C193.663 62.62 193.503 62.3867 193.356 62.08L189.536 54.84C189.376 54.5333 189.216 54.1933 189.056 53.82C188.91 53.4467 188.783 53.0867 188.676 52.74H188.456C188.496 53.1 188.53 53.4667 188.556 53.84C188.583 54.2 188.596 54.56 188.596 54.92V63H185.696V50.3C185.696 49.5667 186.07 49.2 186.816 49.2H188.476C188.796 49.2 189.036 49.28 189.196 49.44C189.37 49.5867 189.536 49.8133 189.696 50.12L193.396 57.14C193.556 57.4467 193.723 57.7867 193.896 58.16C194.07 58.5333 194.236 58.92 194.396 59.32H194.636C194.596 58.92 194.563 58.5333 194.536 58.16C194.523 57.7733 194.516 57.3933 194.516 57.02L194.496 49.2H197.376ZM202.97 49.14C203.717 49.14 204.47 49.1467 205.23 49.16C205.99 49.16 206.737 49.1733 207.47 49.2C208.203 49.2267 208.89 49.2733 209.53 49.34L209.39 51.56H204.09C203.757 51.56 203.503 51.6467 203.33 51.82C203.17 51.9933 203.09 52.2467 203.09 52.58V59.62C203.09 59.9533 203.17 60.2067 203.33 60.38C203.503 60.5533 203.757 60.64 204.09 60.64H209.39L209.53 62.86C208.89 62.9133 208.203 62.96 207.47 63C206.737 63.0267 205.99 63.04 205.23 63.04C204.47 63.0533 203.717 63.06 202.97 63.06C202.09 63.06 201.377 62.8067 200.83 62.3C200.297 61.78 200.03 61.1067 200.03 60.28V51.92C200.03 51.08 200.297 50.4067 200.83 49.9C201.377 49.3933 202.09 49.14 202.97 49.14ZM200.39 54.74H208.65V56.9H200.39V54.74ZM216.253 48.94C216.933 48.94 217.673 48.98 218.473 49.06C219.273 49.1267 220.053 49.2733 220.813 49.5L220.613 51.52C220.026 51.5067 219.339 51.4933 218.553 51.48C217.766 51.4667 216.993 51.46 216.233 51.46C215.859 51.46 215.539 51.4733 215.273 51.5C215.019 51.5133 214.813 51.5667 214.653 51.66C214.493 51.74 214.379 51.8667 214.313 52.04C214.246 52.2133 214.213 52.4533 214.213 52.76C214.213 53.2267 214.319 53.5667 214.533 53.78C214.759 53.9933 215.139 54.1867 215.673 54.36L218.333 55.22C219.439 55.5933 220.206 56.1 220.633 56.74C221.059 57.38 221.273 58.22 221.273 59.26C221.273 60.0467 221.179 60.7 220.993 61.22C220.806 61.74 220.513 62.1467 220.113 62.44C219.713 62.7333 219.186 62.94 218.533 63.06C217.879 63.1933 217.079 63.26 216.133 63.26C215.679 63.26 215.033 63.2267 214.193 63.16C213.353 63.1067 212.393 62.96 211.313 62.72L211.513 60.56C212.299 60.5733 212.979 60.5933 213.553 60.62C214.139 60.6333 214.639 60.6467 215.053 60.66C215.466 60.66 215.826 60.66 216.133 60.66C216.666 60.66 217.079 60.6267 217.373 60.56C217.679 60.4933 217.893 60.36 218.013 60.16C218.133 59.96 218.193 59.6733 218.193 59.3C218.193 58.98 218.146 58.7267 218.053 58.54C217.973 58.34 217.833 58.1867 217.633 58.08C217.446 57.96 217.186 57.8533 216.853 57.76L214.053 56.8C212.999 56.4133 212.253 55.9067 211.813 55.28C211.373 54.6533 211.153 53.8267 211.153 52.8C211.153 52 211.246 51.3533 211.433 50.86C211.633 50.3533 211.933 49.96 212.333 49.68C212.746 49.4 213.273 49.2067 213.913 49.1C214.566 48.9933 215.346 48.94 216.253 48.94ZM227.971 48.94C228.651 48.94 229.391 48.98 230.191 49.06C230.991 49.1267 231.771 49.2733 232.531 49.5L232.331 51.52C231.745 51.5067 231.058 51.4933 230.271 51.48C229.485 51.4667 228.711 51.46 227.951 51.46C227.578 51.46 227.258 51.4733 226.991 51.5C226.738 51.5133 226.531 51.5667 226.371 51.66C226.211 51.74 226.098 51.8667 226.031 52.04C225.965 52.2133 225.931 52.4533 225.931 52.76C225.931 53.2267 226.038 53.5667 226.251 53.78C226.478 53.9933 226.858 54.1867 227.391 54.36L230.051 55.22C231.158 55.5933 231.925 56.1 232.351 56.74C232.778 57.38 232.991 58.22 232.991 59.26C232.991 60.0467 232.898 60.7 232.711 61.22C232.525 61.74 232.231 62.1467 231.831 62.44C231.431 62.7333 230.905 62.94 230.251 63.06C229.598 63.1933 228.798 63.26 227.851 63.26C227.398 63.26 226.751 63.2267 225.911 63.16C225.071 63.1067 224.111 62.96 223.031 62.72L223.231 60.56C224.018 60.5733 224.698 60.5933 225.271 60.62C225.858 60.6333 226.358 60.6467 226.771 60.66C227.185 60.66 227.545 60.66 227.851 60.66C228.385 60.66 228.798 60.6267 229.091 60.56C229.398 60.4933 229.611 60.36 229.731 60.16C229.851 59.96 229.911 59.6733 229.911 59.3C229.911 58.98 229.865 58.7267 229.771 58.54C229.691 58.34 229.551 58.1867 229.351 58.08C229.165 57.96 228.905 57.8533 228.571 57.76L225.771 56.8C224.718 56.4133 223.971 55.9067 223.531 55.28C223.091 54.6533 222.871 53.8267 222.871 52.8C222.871 52 222.965 51.3533 223.151 50.86C223.351 50.3533 223.651 49.96 224.051 49.68C224.465 49.4 224.991 49.2067 225.631 49.1C226.285 48.9933 227.065 48.94 227.971 48.94ZM244.946 48.92C246.04 48.92 246.966 49.04 247.726 49.28C248.486 49.5067 249.093 49.8933 249.546 50.44C250.013 50.9733 250.353 51.7067 250.566 52.64C250.78 53.56 250.886 54.7133 250.886 56.1C250.886 57.4867 250.78 58.6467 250.566 59.58C250.353 60.5 250.013 61.2333 249.546 61.78C249.093 62.3133 248.486 62.7 247.726 62.94C246.966 63.1667 246.04 63.28 244.946 63.28C243.853 63.28 242.926 63.1667 242.166 62.94C241.406 62.7 240.793 62.3133 240.326 61.78C239.86 61.2333 239.52 60.5 239.306 59.58C239.093 58.6467 238.986 57.4867 238.986 56.1C238.986 54.7133 239.093 53.56 239.306 52.64C239.52 51.7067 239.86 50.9733 240.326 50.44C240.793 49.8933 241.406 49.5067 242.166 49.28C242.926 49.04 243.853 48.92 244.946 48.92ZM244.946 51.34C244.24 51.34 243.686 51.48 243.286 51.76C242.9 52.04 242.62 52.5267 242.446 53.22C242.286 53.9 242.206 54.86 242.206 56.1C242.206 57.3267 242.286 58.2867 242.446 58.98C242.62 59.6733 242.9 60.16 243.286 60.44C243.686 60.72 244.24 60.86 244.946 60.86C245.64 60.86 246.18 60.72 246.566 60.44C246.966 60.16 247.246 59.6733 247.406 58.98C247.58 58.2867 247.666 57.3267 247.666 56.1C247.666 54.86 247.58 53.9 247.406 53.22C247.246 52.5267 246.966 52.04 246.566 51.76C246.18 51.48 245.64 51.34 244.946 51.34ZM264.896 49.2V61.9C264.896 62.6333 264.529 63 263.796 63H262.116C261.783 63 261.529 62.9267 261.356 62.78C261.183 62.62 261.023 62.3867 260.876 62.08L257.056 54.84C256.896 54.5333 256.736 54.1933 256.576 53.82C256.429 53.4467 256.303 53.0867 256.196 52.74H255.976C256.016 53.1 256.049 53.4667 256.076 53.84C256.103 54.2 256.116 54.56 256.116 54.92V63H253.216V50.3C253.216 49.5667 253.589 49.2 254.336 49.2H255.996C256.316 49.2 256.556 49.28 256.716 49.44C256.889 49.5867 257.056 49.8133 257.216 50.12L260.916 57.14C261.076 57.4467 261.243 57.7867 261.416 58.16C261.589 58.5333 261.756 58.92 261.916 59.32H262.156C262.116 58.92 262.083 58.5333 262.056 58.16C262.043 57.7733 262.036 57.3933 262.036 57.02L262.016 49.2H264.896ZM270.67 49.2V59.52C270.67 59.8533 270.763 60.1067 270.95 60.28C271.136 60.4533 271.403 60.54 271.75 60.54H276.57L276.71 62.84C275.763 62.9467 274.77 63.0067 273.73 63.02C272.703 63.0467 271.676 63.06 270.65 63.06C269.65 63.06 268.89 62.7933 268.37 62.26C267.863 61.7133 267.61 61.02 267.61 60.18V49.2H270.67ZM281.432 49.2V63H278.392V49.2H281.432ZM295.892 49.2V61.9C295.892 62.6333 295.525 63 294.792 63H293.112C292.779 63 292.525 62.9267 292.352 62.78C292.179 62.62 292.019 62.3867 291.872 62.08L288.052 54.84C287.892 54.5333 287.732 54.1933 287.572 53.82C287.425 53.4467 287.299 53.0867 287.192 52.74H286.972C287.012 53.1 287.045 53.4667 287.072 53.84C287.099 54.2 287.112 54.56 287.112 54.92V63H284.212V50.3C284.212 49.5667 284.585 49.2 285.332 49.2H286.992C287.312 49.2 287.552 49.28 287.712 49.44C287.885 49.5867 288.052 49.8133 288.212 50.12L291.912 57.14C292.072 57.4467 292.239 57.7867 292.412 58.16C292.585 58.5333 292.752 58.92 292.912 59.32H293.152C293.112 58.92 293.079 58.5333 293.052 58.16C293.039 57.7733 293.032 57.3933 293.032 57.02L293.012 49.2H295.892ZM301.486 49.14C302.232 49.14 302.986 49.1467 303.746 49.16C304.506 49.16 305.252 49.1733 305.986 49.2C306.719 49.2267 307.406 49.2733 308.046 49.34L307.906 51.56H302.606C302.272 51.56 302.019 51.6467 301.846 51.82C301.686 51.9933 301.606 52.2467 301.606 52.58V59.62C301.606 59.9533 301.686 60.2067 301.846 60.38C302.019 60.5533 302.272 60.64 302.606 60.64H307.906L308.046 62.86C307.406 62.9133 306.719 62.96 305.986 63C305.252 63.0267 304.506 63.04 303.746 63.04C302.986 63.0533 302.232 63.06 301.486 63.06C300.606 63.06 299.892 62.8067 299.346 62.3C298.812 61.78 298.546 61.1067 298.546 60.28V51.92C298.546 51.08 298.812 50.4067 299.346 49.9C299.892 49.3933 300.606 49.14 301.486 49.14ZM298.906 54.74H307.166V56.9H298.906V54.74Z" fill="#FFCD54"/>
</svg>
